Coordinates
version=1
nRows=9
nColumns=36
inDegrees=yes

Units are S.I. units (second, meters, Newtons, ...)
If the header above contains a line with 'inDegrees', this indicates whether rotational values are in degrees (yes) or radians (no).

endheader
time	pelvis_tilt	pelvis_list	pelvis_rotation	pelvis_tx	pelvis_ty	pelvis_tz	hip_flexion_r	hip_adduction_r	hip_rotation_r	knee_angle_r	knee_angle_r_beta	ankle_angle_r	subtalar_angle_r	mtp_angle_r	hip_flexion_l	hip_adduction_l	hip_rotation_l	knee_angle_l	knee_angle_l_beta	ankle_angle_l	subtalar_angle_l	mtp_angle_l	lumbar_extension	lumbar_bending	lumbar_rotation	arm_flex_r	arm_add_r	arm_rot_r	elbow_flex_r	pro_sup_r	arm_flex_l	arm_add_l	arm_rot_l	elbow_flex_l	pro_sup_l
      5.10833330	     -7.29300099	     -0.90845950	     12.20506584	      0.02196041	      1.05209088	      0.09526956	      8.85354319	      3.84923340	    -16.88990122	      1.61595335	      0.02820371	      3.88341160	    -17.92813183	     -7.49999987	     14.59257843	     -2.22935129	    -21.24039203	      6.95332086	      0.12135834	     -0.13896980	    -12.75051320	     -7.49999987	     -3.98808399	     -4.11854924	      4.91481446	    176.32614959	   -150.27350032	    191.86414206	     83.00588884	     84.99427034	    172.17946699	   -137.73880687	    192.26132209	    100.71418349	     86.38958148
      5.11250000	     -7.08940422	     -0.83706268	     12.33401440	      0.02223552	      1.04847388	      0.09561448	      8.55954723	      3.82551699	    -17.18661208	      1.46397626	      0.02555121	      3.82966989	    -17.81119530	     -7.49999987	     14.49909203	     -2.23909068	    -21.35162209	      7.17466979	      0.12522161	      0.01239480	    -12.41511039	     -7.49999987	     -4.05844181	     -4.10464493	      5.06431698	    176.30526717	   -150.41370669	    192.19921278	     82.18539831	     83.73811213	    172.21974636	   -138.23976917	    192.37983737	    100.16325781	     85.06174338
      5.11666670	     -7.00180685	     -0.76420549	     12.53157517	      0.02174873	      1.05040682	      0.09608153	      8.35972870	      3.76853878	    -17.50022415	      1.27322509	      0.02222197	      3.94188780	    -17.27329077	     -7.49999987	     14.53013227	     -2.16848418	    -20.97846100	      7.38341410	      0.12886489	     -0.20526508	    -12.83941009	     -7.49999987	     -4.07098362	     -4.12756713	      5.02165266	    176.29540971	   -150.78728507	    192.15808671	     81.12698664	     85.10411004	    171.89363273	   -138.80629142	    192.00766647	     99.76679593	     86.46219802
      5.12083330	     -6.86576431	     -0.63339991	     12.58025900	      0.02170314	      1.05250126	      0.09520172	      8.05845405	      3.67306221	    -18.08428494	      1.07568156	      0.01877418	      3.94369961	    -16.90259643	     -7.49999987	     14.46010687	     -2.09113549	    -20.90358591	      7.63084511	      0.13318337	     -0.28484411	    -12.94667120	     -7.49999987	     -4.10453215	     -4.21172490	      5.12030717	    176.28853951	   -151.14681068	    192.34319482	     79.96600805	     84.84838085	    171.90161664	   -139.29322873	    192.18057373	     99.27375156	     86.21726630
      5.12500000	     -6.75992024	     -0.45206365	     12.65129889	      0.02173075	      1.05110838	      0.09585814	      7.84590733	      3.56463210	    -18.16505188	      0.89942951	      0.01569801	      4.06554257	    -16.43125005	     -7.49999987	     14.30208868	     -1.94652478	    -20.87831736	      7.68482487	      0.13412550	     -0.33407556	    -12.95948074	     -7.49999987	     -4.08711137	     -4.38415584	      5.22375872	    176.33977336	   -151.45252666	    192.64316146	     78.80247152	     84.71356200	    171.72910724	   -139.72718420	    192.10053734	     98.95338841	     86.15148510
      5.12916670	     -6.72466513	     -0.31107550	     12.67037994	      0.02028827	      1.05002694	      0.09699800	      7.75196226	      3.49611239	    -18.28496109	      0.79729632	      0.01391545	      4.25373504	    -16.07397537	     -7.49999987	     14.25114410	     -1.85934805	    -20.92931691	      7.75968973	      0.13543213	     -0.25396699	    -12.57488174	     -7.49999987	     -3.98329296	     -4.54887122	      5.35825095	    176.47529705	   -151.75681341	    193.10210607	     77.58548092	     84.49861672	    171.44263444	   -140.09940131	    191.98130955	     98.69584697	     85.94599183
      5.13333330	     -6.60776952	     -0.16149098	     12.57274331	      0.02125595	      1.05132586	      0.09678393	      7.56000387	      3.44430789	    -18.55421881	      0.71332941	      0.01244995	      4.31888351	    -15.87050258	     -7.49999987	     14.07865317	     -1.81096550	    -21.02208735	      7.79326776	      0.13601818	     -0.32116394	    -12.45215847	     -7.49999987	     -3.96901925	     -4.66864232	      5.55875295	    176.74422452	   -152.10268154	    193.70929589	     76.20773832	     84.21731786	    171.16823857	   -140.57419255	    191.93906929	     98.31622469	     85.74903040
      5.13750000	     -6.59707269	     -0.05030033	     12.50070666	      0.01963947	      1.05113857	      0.09724406	      7.51914894	      3.39946935	    -18.87088616	      0.62949195	      0.01098671	      4.38376746	    -15.75811383	     -7.49999987	     14.07724798	     -1.77839138	    -21.05377810	      7.91181888	      0.13808729	     -0.26481137	    -12.29341892	     -7.49999987	     -3.87586810	     -4.74987737	      5.80447259	    176.95232523	   -152.36718437	    194.19293313	     74.96135100	     84.14486971	    171.05088763	   -140.99649080	    192.04332020	     97.96431618	     85.82728392
      5.14166670	     -6.64797711	      0.08509151	     12.42855850	      0.01748772	      1.05517087	      0.09708983	      7.55806343	      3.25934454	    -19.19936406	      0.54247150	      0.00946791	      4.32462702	    -15.59979415	     -7.49999987	     14.10464334	     -1.65765928	    -21.12505703	      7.92466847	      0.13831156	     -0.28515234	    -12.19391914	     -7.49999987	     -3.82662666	     -4.84778069	      6.11733252	    177.01438062	   -152.76640304	    194.26963332	     73.64417439	     84.11738058	    171.13615683	   -141.56383004	    192.23241634	     97.27203410	     85.81557744
